<svg id="Layer_1" enable-background="new 0 0 512.118 512.118" height="25px" viewBox="0 0 512.118 512.118" width="25px" xmlns="http://www.w3.org/2000/svg"><path d="m504.024 192.56c-16.963-66.134-58.625-121.744-117.314-156.59-116.763-69.326-267.433-35.468-342.998 77.059-67.072 99.564-55.556 231.227 24.917 317.58 55.521 59.559 133.811 88.664 214.778 79.943 157.386-16.953 258.847-168.95 220.617-317.992z" fill="#80aaff"/><path d="m504.601 194.962c-1.896-7.635-9.037-12.752-16.904-12.084-34.99 3.019-67.161 27.086-86.06 64.386-5.357 10.579-9.206 21.211-15.381 28.063-4.338 4.813-10.532 6.853-13.182 5.458-4.049-2.136-7.462-12.094-11.756-20.378-.147-.283-14.903-28.416-31.807-30.736-25.568-3.545-42.964 40.401-53.949 54.28-12.68 16.029-35.646 26.015-63.01 27.397-23.66 1.2-50.378-3.083-76.234 7.244-37.646 15.062-60.947 57.789-71.441 96.966-1.427 5.328-.01 11.016 3.752 15.05 49.028 52.594 115.835 81.463 186.598 81.463 171.561.001 288.323-160.272 249.374-317.109z" fill="#6994ff"/><g><g><path d="m91.463 149.373c4.706-17.091 12.815-34.289 30.096-38.264 12.519-2.88 17.504 1.657 28.817-11.108 12.859-14.508 20.819-30.127 42.54-41.44 46.263-24.095 67.901 29.262 25.392 41.512-14.195 4.09-28.133 2.632-47.432 14.582-12.227 7.571-13.562 13.051-18.114 25.294-12.093 32.523-43.263 65.602-60.489 52.046-10.911-8.586-3.805-31.746-.81-42.622z" fill="#fff"/></g></g><g><path d="m216.012 176.088h-9.373l20.687-20.687c6.249-6.248 6.249-16.379 0-22.627-6.248-6.248-16.379-6.248-22.627 0-51.524 51.524-49.736 49.014-51.468 53.19-1.073 2.594-1.465 5.403-1.041 8.382 1.013 7.161.858 5.404 52.509 57.055 3.124 3.124 7.219 4.687 11.313 4.687 14.125 0 21.424-17.205 11.313-27.313l-20.687-20.687h9.373c70.579 0 128 57.421 128 128 0 8.837 7.163 16 16 16s16-7.163 16-16c.001-88.224-71.775-160-159.999-160z" fill="#354a80"/></g></svg>